<svg width="577" height="438" viewBox="0 0 577 438" fill="none" xmlns="http://www.w3.org/2000/svg">
<g clip-path="url(#clip0)">
<path d="M279.159 387.252C154.967 377.802 6.86211 281.586 14.4023 182.516C21.9426 83.4451 165.383 -8.78128 289.575 0.668525C413.767 10.1183 485.256 195.264 477.716 294.335C470.176 393.405 403.351 396.702 279.159 387.252Z" fill="#F2F2F2"/>
<path d="M289.574 403.165C432.752 403.165 548.821 396.055 548.821 387.284C548.821 378.514 432.752 371.404 289.574 371.404C146.396 371.404 30.3275 378.514 30.3275 387.284C30.3275 396.055 146.396 403.165 289.574 403.165Z" fill="#3F3D56"/>
<path opacity="0.1" d="M289.574 397.53C411.53 397.53 510.395 392.828 510.395 387.028C510.395 381.228 411.53 376.526 289.574 376.526C167.618 376.526 68.7534 381.228 68.7534 387.028C68.7534 392.828 167.618 397.53 289.574 397.53Z" fill="black"/>
<path d="M108.716 438C168.759 438 217.433 433.757 217.433 428.523C217.433 423.289 168.759 419.046 108.716 419.046C48.674 419.046 0 423.289 0 428.523C0 433.757 48.674 438 108.716 438Z" fill="#3F3D56"/>
<path opacity="0.1" d="M108.716 434.637C159.859 434.637 201.319 431.831 201.319 428.37C201.319 424.909 159.859 422.103 108.716 422.103C57.5735 422.103 16.1141 424.909 16.1141 428.37C16.1141 431.831 57.5735 434.637 108.716 434.637Z" fill="black"/>
<path d="M485.803 82.9895H100.519V385.235H485.803V82.9895Z" fill="#3F3D56"/>
<path d="M288.777 124.294H193.728C193.577 124.295 193.426 124.265 193.286 124.207C193.146 124.149 193.018 124.064 192.911 123.957C192.804 123.85 192.718 123.723 192.66 123.583C192.602 123.443 192.572 123.293 192.572 123.141C192.572 122.989 192.602 122.839 192.66 122.699C192.718 122.559 192.804 122.432 192.911 122.324C193.018 122.217 193.146 122.132 193.286 122.075C193.426 122.017 193.577 121.987 193.728 121.988H288.777C289.083 121.988 289.376 122.11 289.591 122.326C289.807 122.542 289.928 122.835 289.928 123.141C289.928 123.446 289.807 123.739 289.591 123.956C289.376 124.172 289.083 124.294 288.777 124.294Z" fill="#F2F2F2"/>
<path d="M392.824 136.981H243.329C243.023 136.981 242.73 136.86 242.513 136.643C242.297 136.427 242.176 136.134 242.176 135.828C242.176 135.522 242.297 135.229 242.513 135.012C242.73 134.796 243.023 134.674 243.329 134.674H392.824C392.975 134.674 393.125 134.704 393.265 134.762C393.405 134.82 393.532 134.905 393.64 135.012C393.747 135.119 393.832 135.247 393.89 135.386C393.948 135.526 393.977 135.676 393.977 135.828C393.977 135.979 393.948 136.129 393.89 136.269C393.832 136.409 393.747 136.536 393.64 136.643C393.532 136.751 393.405 136.835 393.265 136.893C393.125 136.951 392.975 136.981 392.824 136.981Z" fill="#F2F2F2"/>
<path d="M289.239 149.668H194.19C193.884 149.668 193.59 149.547 193.374 149.33C193.158 149.114 193.036 148.821 193.036 148.515C193.036 148.209 193.158 147.916 193.374 147.699C193.59 147.483 193.884 147.361 194.19 147.361H289.239C289.545 147.361 289.838 147.483 290.054 147.699C290.271 147.916 290.392 148.209 290.392 148.515C290.392 148.821 290.271 149.114 290.054 149.33C289.838 149.547 289.545 149.668 289.239 149.668Z" fill="#F2F2F2"/>
<path d="M392.824 149.899H297.775C297.469 149.899 297.175 149.777 296.959 149.561C296.743 149.345 296.621 149.051 296.621 148.746C296.621 148.44 296.743 148.146 296.959 147.93C297.175 147.714 297.469 147.592 297.775 147.592H392.824C393.13 147.592 393.423 147.714 393.64 147.93C393.856 148.146 393.977 148.44 393.977 148.746C393.977 149.051 393.856 149.345 393.64 149.561C393.423 149.777 393.13 149.899 392.824 149.899Z" fill="#F2F2F2"/>
<path d="M289.469 162.355H194.42C194.114 162.355 193.821 162.234 193.605 162.017C193.388 161.801 193.267 161.508 193.267 161.202C193.267 160.896 193.388 160.603 193.605 160.386C193.821 160.17 194.114 160.048 194.42 160.048H289.469C289.775 160.048 290.069 160.17 290.285 160.386C290.501 160.603 290.623 160.896 290.623 161.202C290.623 161.508 290.501 161.801 290.285 162.017C290.069 162.234 289.775 162.355 289.469 162.355Z" fill="#F2F2F2"/>
<path d="M289.7 175.042H194.651C194.345 175.042 194.052 174.921 193.835 174.704C193.619 174.488 193.498 174.195 193.498 173.889C193.498 173.583 193.619 173.29 193.835 173.073C194.052 172.857 194.345 172.735 194.651 172.735H289.7C290.006 172.735 290.299 172.857 290.516 173.073C290.732 173.29 290.854 173.583 290.854 173.889C290.854 174.195 290.732 174.488 290.516 174.704C290.299 174.921 290.006 175.042 289.7 175.042Z" fill="#F2F2F2"/>
<path d="M332.841 124.525H305.619C305.313 124.525 305.019 124.403 304.803 124.187C304.587 123.971 304.465 123.677 304.465 123.372C304.465 123.066 304.587 122.772 304.803 122.556C305.019 122.34 305.313 122.218 305.619 122.218H332.841C333.147 122.218 333.441 122.34 333.657 122.556C333.873 122.772 333.995 123.066 333.995 123.372C333.995 123.677 333.873 123.971 333.657 124.187C333.441 124.403 333.147 124.525 332.841 124.525Z" fill="#F2F2F2"/>
<path d="M332.841 162.355H305.619C305.313 162.355 305.019 162.234 304.803 162.017C304.587 161.801 304.465 161.508 304.465 161.202C304.465 160.896 304.587 160.603 304.803 160.386C305.019 160.17 305.313 160.048 305.619 160.048H332.841C333.147 160.048 333.441 160.17 333.657 160.386C333.873 160.603 333.995 160.896 333.995 161.202C333.995 161.508 333.873 161.801 333.657 162.017C333.441 162.234 333.147 162.355 332.841 162.355Z" fill="#F2F2F2"/>
<path d="M332.841 174.812H305.619C305.467 174.812 305.317 174.782 305.176 174.724C305.036 174.667 304.909 174.582 304.801 174.475C304.694 174.367 304.609 174.24 304.551 174.1C304.493 173.96 304.463 173.81 304.463 173.658C304.463 173.507 304.493 173.356 304.551 173.216C304.609 173.076 304.694 172.949 304.801 172.842C304.909 172.735 305.036 172.65 305.176 172.592C305.317 172.534 305.467 172.505 305.619 172.505H332.841C332.993 172.505 333.143 172.534 333.284 172.592C333.424 172.65 333.551 172.735 333.659 172.842C333.766 172.949 333.851 173.076 333.909 173.216C333.967 173.356 333.997 173.507 333.997 173.658C333.997 173.81 333.967 173.96 333.909 174.1C333.851 174.24 333.766 174.367 333.659 174.475C333.551 174.582 333.424 174.667 333.284 174.724C333.143 174.782 332.993 174.812 332.841 174.812Z" fill="#F2F2F2"/>
<path d="M378.52 174.812H351.298C350.992 174.811 350.699 174.689 350.483 174.473C350.268 174.257 350.146 173.964 350.146 173.658C350.146 173.353 350.268 173.06 350.483 172.843C350.699 172.627 350.992 172.505 351.298 172.505H378.52C378.672 172.505 378.822 172.534 378.962 172.592C379.103 172.65 379.23 172.735 379.337 172.842C379.445 172.949 379.53 173.076 379.588 173.216C379.646 173.356 379.676 173.507 379.676 173.658C379.676 173.81 379.646 173.96 379.588 174.1C379.53 174.24 379.445 174.367 379.337 174.475C379.23 174.582 379.103 174.667 378.962 174.724C378.822 174.782 378.672 174.812 378.52 174.812Z" fill="#F2F2F2"/>
<path d="M220.72 136.981H193.498C193.192 136.981 192.898 136.86 192.682 136.643C192.466 136.427 192.344 136.134 192.344 135.828C192.344 135.522 192.466 135.229 192.682 135.012C192.898 134.796 193.192 134.674 193.498 134.674H220.72C221.026 134.674 221.32 134.796 221.536 135.012C221.752 135.229 221.874 135.522 221.874 135.828C221.874 136.134 221.752 136.427 221.536 136.643C221.32 136.86 221.026 136.981 220.72 136.981Z" fill="#F2F2F2"/>
<path d="M288.893 311.139H193.844C193.538 311.139 193.244 311.018 193.028 310.801C192.812 310.585 192.69 310.292 192.69 309.986C192.69 309.68 192.812 309.386 193.028 309.17C193.244 308.954 193.538 308.832 193.844 308.832H288.893C289.199 308.832 289.492 308.954 289.708 309.17C289.925 309.386 290.046 309.68 290.046 309.986C290.046 310.292 289.925 310.585 289.708 310.801C289.492 311.018 289.199 311.139 288.893 311.139Z" fill="#F2F2F2"/>
<path d="M288.431 336.513H193.382C193.076 336.513 192.783 336.392 192.566 336.175C192.35 335.959 192.229 335.666 192.229 335.36C192.229 335.054 192.35 334.76 192.566 334.544C192.783 334.328 193.076 334.206 193.382 334.206H288.431C288.737 334.206 289.031 334.328 289.247 334.544C289.463 334.76 289.585 335.054 289.585 335.36C289.585 335.666 289.463 335.959 289.247 336.175C289.031 336.392 288.737 336.513 288.431 336.513Z" fill="#F2F2F2"/>
<path d="M288.662 349.2H193.613C193.461 349.2 193.311 349.171 193.171 349.113C193.03 349.055 192.903 348.97 192.796 348.863C192.688 348.756 192.603 348.629 192.545 348.489C192.487 348.349 192.457 348.198 192.457 348.047C192.457 347.895 192.487 347.745 192.545 347.605C192.603 347.465 192.688 347.337 192.796 347.23C192.903 347.123 193.03 347.038 193.171 346.98C193.311 346.923 193.461 346.893 193.613 346.893H288.662C288.814 346.893 288.964 346.923 289.104 346.98C289.244 347.038 289.372 347.123 289.479 347.23C289.587 347.337 289.672 347.465 289.73 347.605C289.788 347.745 289.818 347.895 289.818 348.047C289.818 348.198 289.788 348.349 289.73 348.489C289.672 348.629 289.587 348.756 289.479 348.863C289.372 348.97 289.244 349.055 289.104 349.113C288.964 349.171 288.814 349.2 288.662 349.2Z" fill="#F2F2F2"/>
<path d="M329.265 336.744H302.043C301.737 336.744 301.443 336.622 301.227 336.406C301.011 336.19 300.889 335.896 300.889 335.59C300.889 335.285 301.011 334.991 301.227 334.775C301.443 334.559 301.737 334.437 302.043 334.437H329.265C329.571 334.437 329.865 334.559 330.081 334.775C330.297 334.991 330.419 335.285 330.419 335.59C330.419 335.896 330.297 336.19 330.081 336.406C329.865 336.622 329.571 336.744 329.265 336.744Z" fill="#F2F2F2"/>
<path d="M329.265 349.2H302.043C301.737 349.2 301.443 349.079 301.227 348.862C301.011 348.646 300.889 348.353 300.889 348.047C300.889 347.741 301.011 347.447 301.227 347.231C301.443 347.015 301.737 346.893 302.043 346.893H329.265C329.571 346.893 329.865 347.015 330.081 347.231C330.297 347.447 330.419 347.741 330.419 348.047C330.419 348.353 330.297 348.646 330.081 348.862C329.865 349.079 329.571 349.2 329.265 349.2Z" fill="#F2F2F2"/>
<path d="M374.944 336.744H347.722C347.416 336.744 347.122 336.622 346.906 336.406C346.69 336.19 346.568 335.896 346.568 335.59C346.568 335.285 346.69 334.991 346.906 334.775C347.122 334.559 347.416 334.437 347.722 334.437H374.944C375.25 334.437 375.544 334.559 375.76 334.775C375.976 334.991 376.098 335.285 376.098 335.59C376.098 335.896 375.976 336.19 375.76 336.406C375.544 336.622 375.25 336.744 374.944 336.744Z" fill="#F2F2F2"/>
<path d="M392.939 323.826H243.444C243.139 323.826 242.845 323.705 242.629 323.488C242.412 323.272 242.291 322.979 242.291 322.673C242.291 322.367 242.412 322.073 242.629 321.857C242.845 321.641 243.139 321.519 243.444 321.519H392.939C393.245 321.519 393.539 321.641 393.755 321.857C393.971 322.073 394.093 322.367 394.093 322.673C394.093 322.979 393.971 323.272 393.755 323.488C393.539 323.705 393.245 323.826 392.939 323.826Z" fill="#F2F2F2"/>
<path d="M220.836 323.826H193.613C193.307 323.826 193.014 323.705 192.797 323.488C192.581 323.272 192.459 322.979 192.459 322.673C192.459 322.367 192.581 322.073 192.797 321.857C193.014 321.641 193.307 321.519 193.613 321.519H220.836C221.142 321.519 221.435 321.641 221.651 321.857C221.868 322.073 221.989 322.367 221.989 322.673C221.989 322.979 221.868 323.272 221.651 323.488C221.435 323.705 221.142 323.826 220.836 323.826Z" fill="#F2F2F2"/>
<path d="M392.939 362.118H243.444C243.293 362.118 243.143 362.089 243.002 362.031C242.862 361.973 242.735 361.888 242.627 361.781C242.52 361.674 242.435 361.546 242.377 361.406C242.318 361.266 242.289 361.116 242.289 360.964C242.289 360.813 242.318 360.663 242.377 360.522C242.435 360.382 242.52 360.255 242.627 360.148C242.735 360.041 242.862 359.956 243.002 359.898C243.143 359.84 243.293 359.811 243.444 359.811H392.939C393.245 359.811 393.539 359.933 393.755 360.149C393.971 360.365 394.093 360.659 394.093 360.964C394.093 361.27 393.971 361.564 393.755 361.78C393.539 361.996 393.245 362.118 392.939 362.118Z" fill="#F2F2F2"/>
<path d="M220.836 362.118H193.613C193.461 362.118 193.311 362.089 193.171 362.031C193.03 361.973 192.903 361.888 192.796 361.781C192.688 361.674 192.603 361.546 192.545 361.406C192.487 361.266 192.457 361.116 192.457 360.964C192.457 360.813 192.487 360.663 192.545 360.522C192.603 360.382 192.688 360.255 192.796 360.148C192.903 360.041 193.03 359.956 193.171 359.898C193.311 359.84 193.461 359.811 193.613 359.811H220.836C220.987 359.811 221.138 359.84 221.278 359.898C221.418 359.956 221.546 360.041 221.653 360.148C221.76 360.255 221.845 360.382 221.904 360.522C221.962 360.663 221.992 360.813 221.992 360.964C221.992 361.116 221.962 361.266 221.904 361.406C221.845 361.546 221.76 361.674 221.653 361.781C221.546 361.888 221.418 361.973 221.278 362.031C221.138 362.089 220.987 362.118 220.836 362.118Z" fill="#F2F2F2"/>
<path d="M265.938 205.491L229.026 241.937L265.938 278.384L274.243 270.08L246.328 242.168L274.474 214.026L265.938 205.491Z" fill="#3A7BD5"/>
<path d="M320.383 205.491L357.296 241.937L320.383 278.384L312.078 270.08L339.993 242.168L311.848 214.026L320.383 205.491Z" fill="#3A7BD5"/>
<path d="M110.766 95.2842C113.312 95.2842 115.377 93.22 115.377 90.6737C115.377 88.1274 113.312 86.0632 110.766 86.0632C108.219 86.0632 106.155 88.1274 106.155 90.6737C106.155 93.22 108.219 95.2842 110.766 95.2842Z" fill="#3A7BD5"/>
<path d="M123.062 95.2842C125.609 95.2842 127.673 93.22 127.673 90.6737C127.673 88.1274 125.609 86.0632 123.062 86.0632C120.515 86.0632 118.451 88.1274 118.451 90.6737C118.451 93.22 120.515 95.2842 123.062 95.2842Z" fill="#00D2FF"/>
<path d="M135.358 95.2842C137.905 95.2842 139.969 93.22 139.969 90.6737C139.969 88.1274 137.905 86.0632 135.358 86.0632C132.812 86.0632 130.747 88.1274 130.747 90.6737C130.747 93.22 132.812 95.2842 135.358 95.2842Z" fill="#00D2FF"/>
<path opacity="0.1" d="M485.803 98.3579H100.519V99.8947H485.803V98.3579Z" fill="black"/>
<path d="M577 311.187C577 343.855 557.577 355.262 533.616 355.262C509.656 355.262 490.233 343.855 490.233 311.187C490.233 278.518 533.616 236.958 533.616 236.958C533.616 236.958 577 278.518 577 311.187Z" fill="#F2F2F2"/>
<path d="M532.036 350.265L532.48 322.924L550.972 289.1L532.55 318.635L532.75 306.341L545.494 281.87L532.803 303.088L533.162 280.978L546.808 261.495L533.218 277.501L533.443 236.959L532.032 290.63L532.148 288.416L518.274 267.181L531.926 292.666L530.633 317.359L530.595 316.704L514.6 294.358L530.546 319.019L530.384 322.107L530.355 322.154L530.369 322.407L527.089 385.057H531.471L531.996 352.698L547.904 328.096L532.036 350.265Z" fill="#3F3D56"/>
<path d="M62.8246 384.77C61.4935 385.511 60.0894 386.112 58.6346 386.564C56.0325 387.275 53.2513 387.014 50.623 387.621C49.5469 387.869 48.3757 388.389 48.0335 389.439C47.7824 390.209 48.0555 391.04 48.317 391.807C51.2213 400.321 52.9718 409.361 57.6034 417.073C59.5499 420.312 61.9658 423.245 64.7725 425.775C65.8254 426.724 67.0186 427.652 68.4282 427.801C69.0779 427.87 69.7341 427.766 70.3307 427.5C70.9273 427.234 71.4432 426.815 71.8262 426.286C72.2093 425.757 72.446 425.136 72.5124 424.487C72.5788 423.837 72.4726 423.181 72.2045 422.585C71.7892 421.663 71.0173 420.948 70.5194 420.067C69.9795 418.945 69.6629 417.729 69.5872 416.486C69.1296 412.844 68.6888 409.039 69.9507 405.592C70.797 403.281 72.3495 401.31 73.6428 399.216C74.9362 397.121 76.0108 394.722 75.723 392.277C75.5266 390.609 74.7127 389.082 73.8529 387.639C72.9914 386.193 71.2888 382.307 69.558 381.824C67.7614 381.324 64.3914 383.967 62.8246 384.77Z" fill="#2F2E41"/>
<path d="M110.183 414.179C110.21 415.003 110.095 415.825 109.843 416.61C109.302 418.04 107.957 419.021 107.263 420.384C106.297 422.28 106.735 424.571 107.375 426.6C107.776 427.872 108.302 429.196 109.379 429.983C110.301 430.554 111.348 430.889 112.43 430.96C121.671 432.238 131.058 431.505 140.383 431.773C142.082 431.821 143.882 431.881 145.365 431.05C146.849 430.22 147.766 428.132 146.757 426.764C145.851 425.535 144.059 425.546 142.534 425.474C138.563 425.272 134.781 423.714 131.82 421.061C131.236 420.562 130.729 419.979 130.317 419.331C130 418.756 129.736 418.153 129.531 417.529C128.223 413.989 126.668 410.545 124.877 407.223C124.375 406.293 123.807 405.325 122.876 404.827C122.193 404.517 121.453 404.355 120.704 404.353C118.379 404.202 112.361 403.412 110.564 405.219C108.903 406.888 110.22 412.058 110.183 414.179Z" fill="#2F2E41"/>
<path d="M124.485 207.83C132.684 207.83 139.33 201.184 139.33 192.987C139.33 184.789 132.684 178.143 124.485 178.143C116.286 178.143 109.64 184.789 109.64 192.987C109.64 201.184 116.286 207.83 124.485 207.83Z" fill="#FBBEBE"/>
<path d="M111.079 205.243C110.196 207.607 108.699 209.827 106.519 211.098L127.051 215.286C126.307 212.29 126.209 209.169 126.764 206.132C126.967 205.397 127.009 204.627 126.886 203.874C126.5 202.384 124.823 201.667 123.323 201.325C119.576 200.471 116.262 200.013 112.78 198.358C111.715 200.18 111.864 203.142 111.079 205.243Z" fill="#FBBEBE"/>
<path d="M106.348 205.541C108.557 204.541 110.963 204.055 113.387 204.118C115.81 204.182 118.188 204.793 120.342 205.906C122.974 207.293 125.154 209.387 127.295 211.453C129.269 213.357 131.374 215.537 131.515 218.275C131.582 219.602 131.168 220.9 130.959 222.212C130.583 224.925 131.061 227.688 132.326 230.118C133.591 232.547 135.581 234.523 138.019 235.772C139.65 238.488 139.987 241.78 140.012 244.949C140.107 256.954 136.318 269.108 139.023 280.806C139.658 283.552 140.643 286.212 141.191 288.977C141.902 292.559 141.867 296.241 142.239 299.873C142.642 303.807 143.521 307.676 144.858 311.397C143.965 312.818 142.105 313.363 140.43 313.248C138.756 313.133 137.19 312.406 135.695 311.642C128.459 307.939 121.832 303.057 114.337 299.911C109.379 297.829 104.097 296.532 99.2866 294.128C94.4765 291.724 90.003 287.908 88.5322 282.736C87.8963 280.5 87.8571 278.143 87.8224 275.819C87.6762 266.027 87.5404 256.128 89.672 246.571C91.5518 238.142 95.1753 230.078 95.9658 221.479C96.2232 218.679 96.2287 215.683 97.7928 213.347C100.004 210.046 104.777 209.191 106.348 205.541Z" fill="#2F2E41"/>
<path d="M116.042 193.196C116.917 192.055 118.604 191.9 120.001 192.237C121.399 192.575 122.687 193.295 124.099 193.568C124.419 193.659 124.756 193.683 125.086 193.636C125.416 193.59 125.733 193.475 126.016 193.299C126.51 192.813 126.805 192.161 126.844 191.47C127.339 188.529 127.454 185.537 127.188 182.566C127.114 182.15 127.142 181.721 127.269 181.318C127.619 180.476 128.685 180.275 129.555 180.005C130.992 179.52 132.226 178.57 133.062 177.305C133.898 176.04 134.289 174.533 134.173 173.021C134.151 172.296 133.847 171.609 133.324 171.105C132.722 170.615 131.879 170.584 131.103 170.578C127.112 170.546 123.122 170.547 119.131 170.581C117.654 170.594 116.103 170.63 114.822 171.366C113.876 171.911 113.172 172.787 112.322 173.473C110.105 175.261 107.107 175.625 104.411 176.542C103.094 176.916 101.899 177.629 100.943 178.609C100.047 179.633 99.6155 181.157 100.179 182.396C100.468 182.913 100.791 183.41 101.145 183.884C102.736 186.427 101.677 189.725 101.915 192.715C102.211 196.449 107.737 202.506 111.485 203.389C117.534 204.816 114.039 195.647 116.042 193.196Z" fill="#2F2E41"/>
<path d="M107.661 356.897C108.043 359.623 108.533 362.359 108.402 365.109C108.219 368.947 106.834 372.646 106.578 376.481C106.387 379.345 106.829 382.24 106.432 385.083C106.177 386.903 105.583 388.658 105.216 390.459C104.634 393.393 104.65 396.415 105.264 399.343C105.878 402.272 107.077 405.046 108.788 407.5C109.04 407.92 109.397 408.266 109.825 408.504C110.235 408.656 110.674 408.714 111.11 408.674C115.431 408.586 119.74 408.195 124.006 407.502C124.318 407.49 124.614 407.359 124.834 407.137C124.93 406.99 124.992 406.823 125.014 406.648C125.805 402.583 124.001 398.507 123.542 394.39C123.053 389.995 124.107 385.591 125.154 381.294C125.629 379.175 126.222 377.083 126.931 375.03C127.437 373.648 128.048 372.304 128.486 370.9C129.108 368.693 129.486 366.425 129.615 364.136C129.919 360.524 130.081 356.905 130.099 353.276C130.202 349.838 129.916 346.399 129.246 343.026C128.283 338.754 126.313 334.788 124.36 330.869C123.316 331.119 122.335 331.585 121.482 332.237C118.965 333.867 116.337 335.319 113.617 336.581C111.79 337.43 108.226 338.033 107.067 339.801C105.923 341.546 106.661 345.104 106.748 347.027C106.898 350.329 107.202 353.619 107.661 356.897Z" fill="#2F2E41"/>
<path opacity="0.1" d="M107.661 356.897C108.043 359.623 108.533 362.359 108.402 365.109C108.219 368.947 106.834 372.646 106.578 376.481C106.387 379.345 106.829 382.24 106.432 385.083C106.177 386.903 105.583 388.658 105.216 390.459C104.634 393.393 104.65 396.415 105.264 399.343C105.878 402.272 107.077 405.046 108.788 407.5C109.04 407.92 109.397 408.266 109.825 408.504C110.235 408.656 110.674 408.714 111.11 408.674C115.431 408.586 119.74 408.195 124.006 407.502C124.318 407.49 124.614 407.359 124.834 407.137C124.93 406.99 124.992 406.823 125.014 406.648C125.805 402.583 124.001 398.507 123.542 394.39C123.053 389.995 124.107 385.591 125.154 381.294C125.629 379.175 126.222 377.083 126.931 375.03C127.437 373.648 128.048 372.304 128.486 370.9C129.108 368.693 129.486 366.425 129.615 364.136C129.919 360.524 130.081 356.905 130.099 353.276C130.202 349.838 129.916 346.399 129.246 343.026C128.283 338.754 126.313 334.788 124.36 330.869C123.316 331.119 122.335 331.585 121.482 332.237C118.965 333.867 116.337 335.319 113.617 336.581C111.79 337.43 108.226 338.033 107.067 339.801C105.923 341.546 106.661 345.104 106.748 347.027C106.898 350.329 107.202 353.619 107.661 356.897Z" fill="black"/>
<path d="M87.5912 298.669C85.6198 303.976 88.5176 309.71 91.0351 314.781C97.2376 327.274 101.545 340.604 105.829 353.877C106.15 354.871 106.47 355.956 106.113 356.938C105.804 357.635 105.302 358.23 104.667 358.652C101.713 360.895 97.9517 361.694 94.433 362.868C91.0324 364.003 87.7754 365.529 84.7278 367.417C82.178 368.997 79.7893 370.821 77.4054 372.641L69.8166 378.436C69.3252 378.768 68.8959 379.184 68.5481 379.664C67.8162 380.812 68.116 382.311 68.4804 383.623C69.4454 387.097 70.6879 390.487 72.196 393.762C72.4441 394.48 72.9165 395.099 73.5434 395.528C74.7279 396.164 76.1767 395.32 77.0813 394.325C77.9858 393.33 78.7681 392.092 80.0432 391.665C81.3167 391.239 82.7184 391.755 84.0485 391.569C86.1997 391.267 87.6279 389.285 89.1785 387.764C95.5138 381.549 106.091 382 113.06 376.506C114.068 375.604 115.134 374.771 116.253 374.012C117.431 373.316 118.767 372.934 119.989 372.318C123.707 370.446 126.044 366.576 127.296 362.607C128.549 358.637 128.906 354.447 129.805 350.384C130.271 348.283 130.883 346.204 131.09 344.063C131.223 342.071 131.179 340.071 130.96 338.086L128.445 306.983C128.241 304.451 128.036 301.915 127.638 299.406C120.17 299.673 112.707 299.973 105.234 300.062C99.2883 300.132 93.233 300.548 87.5912 298.669Z" fill="#2F2E41"/>
<path d="M84.8457 305.945C85.8588 307.574 88.3246 307.54 90.0226 306.647C91.7205 305.754 93.0397 304.253 94.7416 303.368C97.0287 302.178 99.735 302.223 102.312 302.295C106.392 302.411 110.522 302.533 114.448 303.651C118.508 304.808 122.461 307.034 126.659 306.59C127.39 306.513 128.189 306.303 128.586 305.686C128.819 305.238 128.929 304.737 128.904 304.233L129.041 300.565C129.125 299.931 129.024 299.286 128.749 298.708C128.397 298.227 127.914 297.858 127.357 297.643C121.382 294.751 114.567 294.212 107.932 293.985C104.559 293.869 101.185 293.822 97.8092 293.842C94.9447 293.86 91.5058 293.445 88.7208 294.21C84.9832 295.238 82.9495 302.896 84.8457 305.945Z" fill="#2F2E41"/>
<path d="M122.368 209.894C114.538 209.825 107.443 204.658 99.614 204.532C98.6681 204.466 97.7204 204.63 96.8511 205.008C95.7602 205.558 95.0429 206.62 94.2142 207.518C91.8993 210.024 88.547 211.363 86.1688 213.809C83.9389 216.103 82.6988 219.521 83.5791 222.596C84.4595 225.672 87.7822 228.031 90.8949 227.291C92.149 223.233 94.7373 219.716 98.2403 217.313C100.063 216.144 101.984 215.135 103.981 214.299C107.5 212.705 111.435 211.081 115.108 212.276C116.463 212.787 117.741 213.484 118.904 214.345L125.029 218.459C124.315 215.645 123.674 212.488 122.368 209.894Z" fill="#00D2FF"/>
<path d="M89.993 224.57C88.9533 225.867 90.4511 227.746 90.2218 229.393C90.0695 230.486 89.1693 231.322 88.7944 232.36C88.4061 233.436 88.612 234.628 88.4648 235.763C88.317 236.587 88.0984 237.398 87.8115 238.186C87.1519 240.538 86.6915 242.941 86.4351 245.371L85.0647 255.604C84.8268 257.144 84.6821 258.697 84.6312 260.254C84.7003 261.418 84.6225 262.586 84.3996 263.731C84.0961 264.849 83.4241 265.827 82.9721 266.894C82.5201 267.961 82.3105 269.252 82.9212 270.237C80.8762 271.94 80.2681 275.285 81.6981 277.529C81.9703 277.879 82.1832 278.271 82.3283 278.689C82.4073 279.275 82.3107 279.87 82.0507 280.401L80.665 284.092C80.3103 285.037 80.1981 286.476 81.1843 286.692C80.3674 287.54 79.731 288.545 79.3135 289.646C79.111 290.199 79.0505 290.794 79.1375 291.376C79.2246 291.958 79.4564 292.509 79.8118 292.979C80.1561 293.281 80.4492 293.637 80.6799 294.032C80.8154 294.583 80.7804 295.163 80.5795 295.694C80.3723 296.5 80.3324 297.34 80.4622 298.162C80.592 298.985 80.8887 299.772 81.3342 300.475C81.7958 301.169 82.4496 301.713 83.2155 302.041C83.9815 302.37 84.8266 302.468 85.6474 302.324C88.4194 301.698 90.9103 300.712 93.7053 301.224C99.7233 302.328 105.761 303.437 111.589 305.298C118.242 307.422 124.683 310.536 131.635 311.189C132.093 311.283 132.568 311.209 132.976 310.981C133.33 310.645 133.55 310.192 133.596 309.707C134.312 306.349 135.028 302.991 135.745 299.633C136.611 295.91 137.27 292.143 137.72 288.348C137.964 285.899 138.034 283.436 138.104 280.975L138.657 261.39C138.917 258.504 138.532 255.596 137.53 252.877L134.345 242.709C132.527 236.906 128.357 231.761 126.872 225.864C125.932 222.132 125.238 218.127 122.718 215.218C119.125 211.071 112.909 210.426 107.469 211.139C105.011 211.462 102.532 212.017 100.406 213.292C97.9474 214.766 96.1364 217.087 94.3843 219.355C92.9403 221.225 91.4705 222.728 89.993 224.57Z" fill="#00D2FF"/>
<path d="M102.697 282.176C103.145 284.109 104.086 285.891 104.662 287.789C105.628 290.97 105.546 294.395 106.51 297.577C106.914 298.912 107.5 300.194 107.79 301.558C108.467 304.74 107.479 308.031 106.251 311.044C105.024 314.056 103.529 317.026 103.131 320.254C102.85 322.528 103.253 325.095 105.006 326.571C106.826 328.103 109.47 327.999 111.84 327.795C112.691 327.771 113.531 327.597 114.32 327.279C116.133 326.422 116.896 324.277 117.32 322.317C118.74 315.75 118.334 308.944 117.922 302.238L116.842 284.7C116.635 281.324 116.412 277.878 115.372 274.636C114.993 273.456 114.333 271.073 113.256 270.32C112.189 269.575 109.142 269.541 107.821 269.479C101.623 269.188 101.692 277.838 102.697 282.176Z" fill="#FBBEBE"/>
<path d="M109.564 217.424C108.298 216.761 106.703 217.047 105.48 217.785C104.298 218.594 103.264 219.598 102.42 220.755C99.6847 224.094 96.789 227.924 97.1947 232.221C97.3468 233.832 97.9638 235.357 98.382 236.92C100.216 243.774 98.188 251.023 98.4207 258.114C98.5551 262.212 99.4469 266.242 100.335 270.245C100.516 271.062 100.806 272.007 101.597 272.282C102.19 272.489 102.832 272.223 103.419 272C105.608 271.191 107.96 270.921 110.275 271.213C112.59 271.505 114.802 272.35 116.721 273.676C118.189 272.893 117.639 270.417 117.31 268.786C116.332 263.941 117.66 258.943 119.272 254.27C120.883 249.598 122.812 244.931 123.079 239.996C123.382 234.404 121.527 228.946 119.698 223.653C119.298 222.497 118.862 221.286 117.936 220.488C117.143 219.898 116.235 219.483 115.27 219.27C113.327 218.696 111.359 218.364 109.564 217.424Z" fill="#2F2E41"/>
</g>
<defs>
<clipPath id="clip0">
<rect width="577" height="438" fill="white"/>
</clipPath>
</defs>
</svg>
